<?xml version="1.0" encoding="utf-8"?>
<!-- Generator: Adobe Illustrator 21.0.1, SVG Export Plug-In . SVG Version: 6.00 Build 0)  -->
<svg version="1.1" id="Capa_1" xmlns="http://www.w3.org/2000/svg" xmlns:xlink="http://www.w3.org/1999/xlink" x="0px" y="0px"
	 viewBox="0 0 136.5 136.5" style="enable-background:new 0 0 136.5 136.5;" xml:space="preserve">
<style type="text/css">
	.st0{fill:#A4C2F7;}
	.st1{fill:#E3E7F2;}
	.st2{fill:#FFFFFF;}
	.st3{fill:#428DFF;}
</style>
<g>
	<circle class="st0" cx="68.3" cy="68.3" r="59.7"/>
	<ellipse class="st1" cx="55.5" cy="68.3" rx="46.9" ry="59.7"/>
	<path class="st2" d="M68.3,128c2.4,0,4.8-0.2,7.2-0.5C52.2,124,34.1,98.8,34.1,68.3c0-30.6,18-55.7,41.3-59.3
		c-22-2.7-43.7,7.1-56.3,25.4s-14,42-3.7,61.7C25.7,115.7,46.1,128,68.3,128L68.3,128z"/>
	<g>
		<path class="st3" d="M68.3,136.5C30.6,136.5,0,106,0,68.3S30.6,0,68.3,0s68.3,30.6,68.3,68.3C136.5,106,106,136.5,68.3,136.5
			L68.3,136.5z M68.3,17.1C40,17.1,17.1,40,17.1,68.3s22.9,51.2,51.2,51.2s51.2-22.9,51.2-51.2C119.4,40,96.5,17.1,68.3,17.1
			L68.3,17.1z"/>
	</g>
</g>
</svg>
